<svg width="1104" height="166" xmlns="http://www.w3.org/2000/svg" xmlns:xlink="http://www.w3.org/1999/xlink" xml:space="preserve" overflow="hidden"><g transform="translate(-88 -337)"><path d="M34.7442 17.3721C34.7442 26.9664 26.9664 34.7442 17.3721 34.7442 7.77775 34.7442 0 26.9664 0 17.3721-3.42878e-15 7.77775 7.77775-3.42878e-15 17.3721-6.85756e-15 26.9664-1.37151e-14 34.7442 7.77775 34.7442 17.3721Z" stroke="#22242A" stroke-width="1.93023" stroke-linecap="round" stroke-linejoin="round" fill="#FFFFFF" fill-opacity="0.95" transform="matrix(1.00079 0 0 1 111.181 430.616)"/><path d="M86.8605 0C92.1907-3.42878e-15 96.5116 4.32097 96.5116 9.65116L96.5116 67.5581C96.5116 72.8883 92.1907 77.2093 86.8605 77.2093L9.65116 77.2093C4.32097 77.2093 0 72.8883 0 67.5581L0 9.65116C-1.71439e-15 4.32097 4.32097-1.71439e-15 9.65116-3.42878e-15Z" stroke="#22242A" stroke-width="1.93023" stroke-linecap="round" stroke-linejoin="round" fill="#FFFFFF" fill-opacity="0.95" transform="matrix(1.00079 0 0 1 196.178 409.384)"/><text fill="#22242A" font-family="Arial,Arial_MSFontService,sans-serif" font-weight="400" font-size="12" transform="matrix(0.965879 0 0 0.965116 218.214 445)">Learn and </text><text fill="#22242A" font-family="Arial,Arial_MSFontService,sans-serif" font-weight="400" font-size="12" transform="matrix(0.965879 0 0 0.965116 208.546 458)">download tool</text><path d="M86.8605 0C92.1907-3.42878e-15 96.5116 4.32097 96.5116 9.65116L96.5116 67.5581C96.5116 72.8883 92.1907 77.2093 86.8605 77.2093L9.65116 77.2093C4.32097 77.2093 0 72.8883 0 67.5581L0 9.65116C-1.71439e-15 4.32097 4.32097-1.71439e-15 9.65116-3.42878e-15Z" stroke="#22242A" stroke-width="1.93023" stroke-linecap="round" stroke-linejoin="round" fill="#FFFFFF" fill-opacity="0.95" transform="matrix(1.00079 0 0 1 350.719 409.384)"/><text fill="#22242A" font-family="Arial,Arial_MSFontService,sans-serif" font-weight="400" font-size="12" transform="matrix(0.965879 0 0 0.965116 365.348 445)">Load the IFC </text><text fill="#22242A" font-family="Arial,Arial_MSFontService,sans-serif" font-weight="400" font-size="12" transform="matrix(0.965879 0 0 0.965116 391.93 458)">file</text><path d="M86.8605 0C92.1907-3.42878e-15 96.5116 4.32097 96.5116 9.65116L96.5116 67.5581C96.5116 72.8883 92.1907 77.2093 86.8605 77.2093L9.65116 77.2093C4.32097 77.2093 0 72.8883 0 67.5581L0 9.65116C-1.71439e-15 4.32097 4.32097-1.71439e-15 9.65116-3.42878e-15Z" stroke="#22242A" stroke-width="1.93023" stroke-linecap="round" stroke-linejoin="round" fill="#FFFFFF" fill-opacity="0.95" transform="matrix(1.00079 0 0 1 505.26 409.384)"/><text fill="#22242A" font-family="Arial,Arial_MSFontService,sans-serif" font-weight="400" font-size="12" transform="matrix(0.965879 0 0 0.965116 517.796 438)">Check default </text><text fill="#22242A" font-family="Arial,Arial_MSFontService,sans-serif" font-weight="400" font-size="12" transform="matrix(0.965879 0 0 0.965116 526.658 451)">prices and </text><text fill="#22242A" font-family="Arial,Arial_MSFontService,sans-serif" font-weight="400" font-size="12" transform="matrix(0.965879 0 0 0.965116 539.051 465)">areas</text><path d="M24.1279 0 48.2558 24.1279 24.1279 48.2558 0 24.1279Z" stroke="#22242A" stroke-width="1.93023" stroke-linecap="round" stroke-linejoin="round" fill="#FFFFFF" fill-opacity="0.95" transform="matrix(1.00079 0 0 1 664.63 423.86)"/><path d="M15.4419 14.4767 22.6113 23.8522 15.4419 33.2276 18.7508 33.2276 24.2658 26.0237 29.7807 33.2276 33.0897 33.2276 25.9203 23.8522 33.0897 14.4767 29.7807 14.4767 24.2658 21.6806 18.7508 14.4767 15.4419 14.4767Z" stroke="#22242A" stroke-width="0.965116" stroke-linecap="round" stroke-linejoin="round" fill="#22242A" transform="matrix(1.00079 0 0 1 664.63 423.86)"/><path d="M86.8605 0C92.1907-3.42878e-15 96.5116 4.32097 96.5116 9.65116L96.5116 67.5581C96.5116 72.8883 92.1907 77.2093 86.8605 77.2093L9.65116 77.2093C4.32097 77.2093 0 72.8883 0 67.5581L0 9.65116C-1.71439e-15 4.32097 4.32097-1.71439e-15 9.65116-3.42878e-15Z" stroke="#22242A" stroke-width="1.93023" stroke-linecap="round" stroke-linejoin="round" fill="#FFFFFF" fill-opacity="0.95" transform="matrix(1.00079 0 0 1 766.047 341.826)"/><text fill="#22242A" font-family="Arial,Arial_MSFontService,sans-serif" font-weight="400" font-size="12" transform="matrix(0.965879 0 0 0.965116 776.322 370)">Update default </text><text fill="#22242A" font-family="Arial,Arial_MSFontService,sans-serif" font-weight="400" font-size="12" transform="matrix(0.965879 0 0 0.965116 787.446 384)">prices and </text><text fill="#22242A" font-family="Arial,Arial_MSFontService,sans-serif" font-weight="400" font-size="12" transform="matrix(0.965879 0 0 0.965116 799.838 398)">areas</text><path d="M86.8605 0C92.1907-3.42878e-15 96.5116 4.32097 96.5116 9.65116L96.5116 67.5581C96.5116 72.8883 92.1907 77.2093 86.8605 77.2093L9.65116 77.2093C4.32097 77.2093 0 72.8883 0 67.5581L0 9.65116C-1.71439e-15 4.32097 4.32097-1.71439e-15 9.65116-3.42878e-15Z" stroke="#22242A" stroke-width="1.93023" stroke-linecap="round" stroke-linejoin="round" fill="#FFFFFF" fill-opacity="0.95" transform="matrix(1.00079 0 0 1 916.724 409.384)"/><text fill="#22242A" font-family="Arial,Arial_MSFontService,sans-serif" font-weight="400" font-size="12" transform="matrix(0.965879 0 0 0.965116 930.392 445)">Run the main </text><text fill="#22242A" font-family="Arial,Arial_MSFontService,sans-serif" font-weight="400" font-size="12" transform="matrix(0.965879 0 0 0.965116 950.851 458)">script</text><path d="M86.8605 0C92.1907-3.42878e-15 96.5116 4.32097 96.5116 9.65116L96.5116 67.5581C96.5116 72.8883 92.1907 77.2093 86.8605 77.2093L9.65116 77.2093C4.32097 77.2093 0 72.8883 0 67.5581L0 9.65116C-1.71439e-15 4.32097 4.32097-1.71439e-15 9.65116-3.42878e-15Z" stroke="#22242A" stroke-width="1.93023" stroke-linecap="round" stroke-linejoin="round" fill="#FFFFFF" fill-opacity="0.95" transform="matrix(1.00079 0 0 1 1090.58 409.384)"/><text fill="#22242A" font-family="Arial,Arial_MSFontService,sans-serif" font-weight="400" font-size="12" transform="matrix(0.965879 0 0 0.965116 1134.04 451)">...</text><path d="M279.884 154.419 279.884 115.814" stroke="#22242A" stroke-width="1.93023" stroke-linecap="round" stroke-linejoin="round" stroke-dasharray="0 4.82558" fill="none" transform="matrix(1.00079 0 0 1 -35.6325 254.965)"/><text fill="#22242A" font-family="Arial,Arial_MSFontService,sans-serif" font-weight="400" font-size="11" transform="matrix(0.965879 0 0 0.965116 92.8294 482)">Cost estimation </text><text fill="#22242A" font-family="Arial,Arial_MSFontService,sans-serif" font-weight="400" font-size="11" transform="matrix(0.965879 0 0 0.965116 109.951 494)">required</text><path d="M434.302 154.419 434.302 115.814" stroke="#22242A" stroke-width="1.93023" stroke-linecap="round" stroke-linejoin="round" stroke-dasharray="0 4.82558" fill="none" transform="matrix(1.00079 0 0 1 -35.6325 254.965)"/><path d="M9.65116 0 0 0 0 28.953 9.65116 28.953" stroke="#22242A" stroke-width="1.93023" stroke-linecap="round" stroke-linejoin="round" fill="none" transform="matrix(1.00079 0 0 1 196.178 341.826)"/><text fill="#22242A" font-family="Arial,Arial_MSFontService,sans-serif" font-weight="400" font-size="12" transform="matrix(0.965879 0 0 0.965116 202.94 359)">20</text><text fill="#22242A" font-family="Arial,Arial_MSFontService,sans-serif" font-weight="400" font-size="12" transform="matrix(0.965879 0 0 0.965116 215.832 359)">-</text><text fill="#22242A" font-family="Arial,Arial_MSFontService,sans-serif" font-weight="400" font-size="12" transform="matrix(0.965879 0 0 0.965116 219.692 359)">30 </text><text fill="#22242A" font-family="Arial,Arial_MSFontService,sans-serif" font-weight="400" font-size="12" transform="matrix(0.965879 0 0 0.965116 235.804 359)">minutes</text><path d="M181.442 193.023 231.628 193.023" stroke="#22242A" stroke-width="1.93023" stroke-linecap="round" stroke-linejoin="round" fill="none" transform="matrix(1.00079 0 0 1 -35.6325 254.965)"/><g><path d="M0.965116 4.82558 10.6163 9.65116 0.965116 14.4767Z" stroke="#22242A" stroke-width="0.965116" stroke-linecap="round" stroke-linejoin="round" fill="#22242A" transform="matrix(1.00079 0 0 1 185.554 438.337)"/></g><path d="M328.14 193.023 386.047 193.023" stroke="#22242A" stroke-width="1.93023" stroke-linecap="round" stroke-linejoin="round" fill="none" transform="matrix(1.00079 0 0 1 -35.6325 254.965)"/><g><path d="M0.965116 4.82558 10.6163 9.65116 0.965116 14.4767Z" stroke="#22242A" stroke-width="0.965116" stroke-linecap="round" stroke-linejoin="round" fill="#22242A" transform="matrix(1.00079 0 0 1 340.094 438.337)"/></g><path d="M9.65116 0 0 0 0 28.953 9.65116 28.953" stroke="#22242A" stroke-width="1.93023" stroke-linecap="round" stroke-linejoin="round" fill="none" transform="matrix(1.00079 0 0 1 350.719 341.826)"/><text fill="#22242A" font-family="Arial,Arial_MSFontService,sans-serif" font-weight="400" font-size="12" transform="matrix(0.965879 0 0 0.965116 357.48 359)">&lt;</text><text fill="#22242A" font-family="Arial,Arial_MSFontService,sans-serif" font-weight="400" font-size="12" transform="matrix(0.965879 0 0 0.965116 364.249 359)">5 </text><text fill="#22242A" font-family="Arial,Arial_MSFontService,sans-serif" font-weight="400" font-size="12" transform="matrix(0.965879 0 0 0.965116 373.915 359)">minutes</text><path d="M482.558 193.023 540.465 193.023" stroke="#22242A" stroke-width="1.93023" stroke-linecap="round" stroke-linejoin="round" fill="none" transform="matrix(1.00079 0 0 1 -35.6325 254.965)"/><g><path d="M0.965116 4.82558 10.6163 9.65116 0.965116 14.4767Z" stroke="#22242A" stroke-width="0.965116" stroke-linecap="round" stroke-linejoin="round" fill="#22242A" transform="matrix(1.00079 0 0 1 494.635 438.337)"/></g><path d="M636.977 193.023 699.709 193.023" stroke="#22242A" stroke-width="1.93023" stroke-linecap="round" stroke-linejoin="round" fill="none" transform="matrix(1.00079 0 0 1 -35.6325 254.965)"/><g><path d="M0.965116 4.82558 10.6163 9.65116 0.965116 14.4767Z" stroke="#22242A" stroke-width="0.965116" stroke-linecap="round" stroke-linejoin="round" fill="#22242A" transform="matrix(1.00079 0 0 1 654.005 438.337)"/></g><path d="M723.837 168.895 723.837 130.291C723.837 127.878 726.25 125.465 728.663 125.465L801.047 125.465" stroke="#22242A" stroke-width="1.93023" stroke-linecap="round" stroke-linejoin="round" fill="none" transform="matrix(1.00079 0 0 1 -35.6325 254.965)"/><g><path d="M0.965116 4.82558 10.6163 9.65116 0.965116 14.4767Z" stroke="#22242A" stroke-width="0.965116" stroke-linecap="round" stroke-linejoin="round" fill="#22242A" transform="matrix(1.00079 0 0 1 755.423 370.779)"/></g><text fill="#22242A" font-family="Arial,Arial_MSFontService,sans-serif" font-weight="400" font-size="11" transform="matrix(0.965879 0 0 0.965116 720.651 373)">No</text><text fill="#22242A" font-family="Arial,Arial_MSFontService,sans-serif" font-weight="400" font-size="11" transform="matrix(0.965879 0 0 0.965116 630.494 415)">Are they </text><text fill="#22242A" font-family="Arial,Arial_MSFontService,sans-serif" font-weight="400" font-size="11" transform="matrix(0.965879 0 0 0.965116 620.199 428)">appropriate</text><text fill="#22242A" font-family="Arial,Arial_MSFontService,sans-serif" font-weight="400" font-size="11" transform="matrix(0.965879 0 0 0.965116 673.951 428)">?</text><path d="M747.965 193.023 951.605 193.023" stroke="#22242A" stroke-width="1.93023" stroke-linecap="round" stroke-linejoin="round" fill="none" transform="matrix(1.00079 0 0 1 -35.6325 254.965)"/><g><path d="M0.965116 4.82558 10.6163 9.65116 0.965116 14.4767Z" stroke="#22242A" stroke-width="0.965116" stroke-linecap="round" stroke-linejoin="round" fill="#22242A" transform="matrix(1.00079 0 0 1 906.1 438.337)"/></g><path d="M897.558 125.465 995.035 125.465C997.448 125.465 999.86 127.878 999.86 130.291L999.86 154.419" stroke="#22242A" stroke-width="1.93023" stroke-linecap="round" stroke-linejoin="round" fill="none" transform="matrix(1.00079 0 0 1 -35.6325 254.965)"/><g><path d="M0.965116 4.82558 10.6163 9.65116 0.965116 14.4767Z" stroke="#22242A" stroke-width="0.965116" stroke-linecap="round" stroke-linejoin="round" fill="#22242A" transform="matrix(6.12808e-17 1 -1.00079 6.12323e-17 974.677 398.767)"/></g><path d="M1048.12 193.023 1125.33 193.023" stroke="#22242A" stroke-width="1.93023" stroke-linecap="round" stroke-linejoin="round" fill="none" transform="matrix(1.00079 0 0 1 -35.6325 254.965)"/><g><path d="M0.965116 4.82558 10.6163 9.65116 0.965116 14.4767Z" stroke="#22242A" stroke-width="0.965116" stroke-linecap="round" stroke-linejoin="round" fill="#22242A" transform="matrix(1.00079 0 0 1 1079.96 438.337)"/></g><text fill="#22242A" font-family="Arial,Arial_MSFontService,sans-serif" font-weight="400" font-size="11" transform="matrix(0.965879 0 0 0.965116 717.753 436)">Yes</text></g></svg>