<svg width="944" height="457" xmlns="http://www.w3.org/2000/svg" xmlns:xlink="http://www.w3.org/1999/xlink" xml:space="preserve" overflow="hidden"><g transform="translate(-168 -192)"><path d="M31.85 15.925C31.85 24.7202 24.7202 31.85 15.925 31.85 7.12988 31.85 0 24.7202 0 15.925-3.14317e-15 7.12988 7.12988-3.14317e-15 15.925-6.28634e-15 24.7202-1.25727e-14 31.85 7.12988 31.85 15.925Z" stroke="#22242A" stroke-width="1.76945" stroke-linecap="round" stroke-linejoin="round" fill="#FFFFFF" fill-opacity="0.95" transform="matrix(1 0 0 1.00106 189.233 393.045)"/><text fill="#22242A" font-family="Arial,Arial_MSFontService,sans-serif" font-weight="400" font-size="11" transform="matrix(0.884724 0 0 0.885659 172.424 440)">Cost estimation </text><text fill="#22242A" font-family="Arial,Arial_MSFontService,sans-serif" font-weight="400" font-size="11" transform="matrix(0.884724 0 0 0.885659 188.107 452)">required</text><path d="M79.6251 0C84.5113-3.14317e-15 88.4724 3.96104 88.4724 8.84724L88.4724 61.9306C88.4724 66.8168 84.5113 70.7779 79.6251 70.7779L8.84724 70.7779C3.96104 70.7779 0 66.8168 0 61.9306L0 8.84724C-1.57158e-15 3.96104 3.96104-1.57158e-15 8.84724-3.14317e-15Z" stroke="#22242A" stroke-width="1.76945" stroke-linecap="round" stroke-linejoin="round" fill="#FFFFFF" fill-opacity="0.95" transform="matrix(1 0 0 1.00106 267.089 373.56)"/><text fill="#22242A" font-family="Arial,Arial_MSFontService,sans-serif" font-weight="400" font-size="12" transform="matrix(0.884724 0 0 0.885659 287.273 387)">Learn and </text><text fill="#22242A" font-family="Arial,Arial_MSFontService,sans-serif" font-weight="400" font-size="12" transform="matrix(0.884724 0 0 0.885659 288.455 399)">download </text><text fill="#22242A" font-family="Arial,Arial_MSFontService,sans-serif" font-weight="400" font-size="12" transform="matrix(0.884724 0 0 0.885659 296.135 412)">Sigma </text><text fill="#22242A" font-family="Arial,Arial_MSFontService,sans-serif" font-weight="400" font-size="12" transform="matrix(0.884724 0 0 0.885659 282.551 425)">Enterprise </text><text fill="#22242A" font-family="Arial,Arial_MSFontService,sans-serif" font-weight="400" font-size="12" transform="matrix(0.884724 0 0 0.885659 333.887 425)">+ </text><text fill="#22242A" font-family="Arial,Arial_MSFontService,sans-serif" font-weight="400" font-size="12" transform="matrix(0.884724 0 0 0.885659 285.217 438)">revit</text><text fill="#22242A" font-family="Arial,Arial_MSFontService,sans-serif" font-weight="400" font-size="12" transform="matrix(0.884724 0 0 0.885659 305.274 438)">-</text><text fill="#22242A" font-family="Arial,Arial_MSFontService,sans-serif" font-weight="400" font-size="12" transform="matrix(0.884724 0 0 0.885659 308.809 438)">plugin</text><path d="M79.6251 0C84.5113-3.14317e-15 88.4724 3.96104 88.4724 8.84724L88.4724 61.9306C88.4724 66.8168 84.5113 70.7779 79.6251 70.7779L8.84724 70.7779C3.96104 70.7779 0 66.8168 0 61.9306L0 8.84724C-1.57158e-15 3.96104 3.96104-1.57158e-15 8.84724-3.14317e-15Z" stroke="#22242A" stroke-width="1.76945" stroke-linecap="round" stroke-linejoin="round" fill="#FFFFFF" fill-opacity="0.95" transform="matrix(1 0 0 1.00106 408.645 373.56)"/><text fill="#22242A" font-family="Arial,Arial_MSFontService,sans-serif" font-weight="400" font-size="12" transform="matrix(0.884724 0 0 0.885659 434.44 393)">Choose </text><text fill="#22242A" font-family="Arial,Arial_MSFontService,sans-serif" font-weight="400" font-size="12" transform="matrix(0.884724 0 0 0.885659 419.103 406)">IfcElements to </text><text fill="#22242A" font-family="Arial,Arial_MSFontService,sans-serif" font-weight="400" font-size="12" transform="matrix(0.884724 0 0 0.885659 416.891 419)">export from rvt</text><text fill="#22242A" font-family="Arial,Arial_MSFontService,sans-serif" font-weight="400" font-size="12" transform="matrix(0.884724 0 0 0.885659 485.324 419)">-</text><text fill="#22242A" font-family="Arial,Arial_MSFontService,sans-serif" font-weight="400" font-size="12" transform="matrix(0.884724 0 0 0.885659 488.859 419)"> </text><text fill="#22242A" font-family="Arial,Arial_MSFontService,sans-serif" font-weight="400" font-size="12" transform="matrix(0.884724 0 0 0.885659 423.97 431)">file to Sigma</text><path d="M22.1181 0 44.2362 22.1181 22.1181 44.2362 0 22.1181Z" stroke="#22242A" stroke-width="1.76945" stroke-linecap="round" stroke-linejoin="round" fill="#FFFFFF" fill-opacity="0.95" transform="matrix(1 0 0 1.00106 554.624 386.845)"/><path d="M14.1556 13.2709 20.7278 21.8653 14.1556 30.4598 17.1889 30.4598 22.2445 23.856 27.3 30.4598 30.3334 30.4598 23.7611 21.8653 30.3334 13.2709 27.3 13.2709 22.2445 19.8746 17.1889 13.2709 14.1556 13.2709Z" stroke="#22242A" stroke-width="0.884724" stroke-linecap="round" stroke-linejoin="round" fill="#22242A" transform="matrix(1 0 0 1.00106 554.624 386.845)"/><text fill="#22242A" font-family="Arial,Arial_MSFontService,sans-serif" font-weight="400" font-size="11" transform="matrix(0.884724 0 0 0.885659 511.273 394)">Does it work</text><text fill="#22242A" font-family="Arial,Arial_MSFontService,sans-serif" font-weight="400" font-size="11" transform="matrix(0.884724 0 0 0.885659 564.813 394)">?</text><path d="M79.6251 0C84.5113-3.14317e-15 88.4724 3.96104 88.4724 8.84724L88.4724 61.9306C88.4724 66.8168 84.5113 70.7779 79.6251 70.7779L8.84724 70.7779C3.96104 70.7779 0 66.8168 0 61.9306L0 8.84724C-1.57158e-15 3.96104 3.96104-1.57158e-15 8.84724-3.14317e-15Z" stroke="#22242A" stroke-width="1.76945" stroke-linecap="round" stroke-linejoin="round" fill="#FFFFFF" fill-opacity="0.95" transform="matrix(1 0 0 1.00106 691.756 373.56)"/><text fill="#22242A" font-family="Arial,Arial_MSFontService,sans-serif" font-weight="400" font-size="12" transform="matrix(0.884724 0 0 0.885659 713.42 406)">Diagnose </text><text fill="#22242A" font-family="Arial,Arial_MSFontService,sans-serif" font-weight="400" font-size="12" transform="matrix(0.884724 0 0 0.885659 720.945 419)">issues</text><path d="M22.1181 0 44.2362 22.1181 22.1181 44.2362 0 22.1181Z" stroke="#22242A" stroke-width="1.76945" stroke-linecap="round" stroke-linejoin="round" fill="#FFFFFF" fill-opacity="0.95" transform="matrix(1 0 0 1.00106 873.125 386.845)"/><path d="M14.1556 13.2709 20.7278 21.8653 14.1556 30.4598 17.1889 30.4598 22.2445 23.856 27.3 30.4598 30.3334 30.4598 23.7611 21.8653 30.3334 13.2709 27.3 13.2709 22.2445 19.8746 17.1889 13.2709 14.1556 13.2709Z" stroke="#22242A" stroke-width="0.884724" stroke-linecap="round" stroke-linejoin="round" fill="#22242A" transform="matrix(1 0 0 1.00106 873.125 386.845)"/><text fill="#22242A" font-family="Arial,Arial_MSFontService,sans-serif" font-weight="400" font-size="11" transform="matrix(0.884724 0 0 0.885659 860.739 446)">Have you found </text><text fill="#22242A" font-family="Arial,Arial_MSFontService,sans-serif" font-weight="400" font-size="11" transform="matrix(0.884724 0 0 0.885659 875.793 458)">the issue</text><path d="M79.6251 0C84.5113-3.14317e-15 88.4724 3.96104 88.4724 8.84724L88.4724 61.9306C88.4724 66.8168 84.5113 70.7779 79.6251 70.7779L8.84724 70.7779C3.96104 70.7779 0 66.8168 0 61.9306L0 8.84724C-1.57158e-15 3.96104 3.96104-1.57158e-15 8.84724-3.14317e-15Z" stroke="#22242A" stroke-width="1.76945" stroke-linecap="round" stroke-linejoin="round" fill="#FFFFFF" fill-opacity="0.95" transform="matrix(1 0 0 1.00106 691.756 289.422)"/><text fill="#22242A" font-family="Arial,Arial_MSFontService,sans-serif" font-weight="400" font-size="12" transform="matrix(0.884724 0 0 0.885659 724.493 328)">Fix it</text><path d="M79.6251 0C84.5113-3.14317e-15 88.4724 3.96104 88.4724 8.84724L88.4724 61.9306C88.4724 66.8168 84.5113 70.7779 79.6251 70.7779L8.84724 70.7779C3.96104 70.7779 0 66.8168 0 61.9306L0 8.84724C-1.57158e-15 3.96104 3.96104-1.57158e-15 8.84724-3.14317e-15Z" stroke="#22242A" stroke-width="1.76945" stroke-linecap="round" stroke-linejoin="round" fill="#FFFFFF" fill-opacity="0.95" transform="matrix(1 0 0 1.00106 1010.26 373.56)"/><text fill="#22242A" font-family="Arial,Arial_MSFontService,sans-serif" font-weight="400" font-size="12" transform="matrix(0.884724 0 0 0.885659 1023.08 393)">Narrow down </text><text fill="#22242A" font-family="Arial,Arial_MSFontService,sans-serif" font-weight="400" font-size="12" transform="matrix(0.884724 0 0 0.885659 1032.95 406)">the list of </text><text fill="#22242A" font-family="Arial,Arial_MSFontService,sans-serif" font-weight="400" font-size="12" transform="matrix(0.884724 0 0 0.885659 1020.72 419)">IfcElements to </text><text fill="#22242A" font-family="Arial,Arial_MSFontService,sans-serif" font-weight="400" font-size="12" transform="matrix(0.884724 0 0 0.885659 1039.44 431)">export</text><path d="M79.6251 0C84.5113-3.14317e-15 88.4724 3.96104 88.4724 8.84724L88.4724 61.9306C88.4724 66.8168 84.5113 70.7779 79.6251 70.7779L8.84724 70.7779C3.96104 70.7779 0 66.8168 0 61.9306L0 8.84724C-1.57158e-15 3.96104 3.96104-1.57158e-15 8.84724-3.14317e-15Z" stroke="#22242A" stroke-width="1.76945" stroke-linecap="round" stroke-linejoin="round" fill="#FFFFFF" fill-opacity="0.95" transform="matrix(1 0 0 1.00106 691.756 470.983)"/><text fill="#22242A" font-family="Arial,Arial_MSFontService,sans-serif" font-weight="400" font-size="12" transform="matrix(0.884724 0 0 0.885659 708.697 510)">Typecoding</text><path d="M79.6251 0C84.5113-3.14317e-15 88.4724 3.96104 88.4724 8.84724L88.4724 61.9306C88.4724 66.8168 84.5113 70.7779 79.6251 70.7779L8.84724 70.7779C3.96104 70.7779 0 66.8168 0 61.9306L0 8.84724C-1.57158e-15 3.96104 3.96104-1.57158e-15 8.84724-3.14317e-15Z" stroke="#22242A" stroke-width="1.76945" stroke-linecap="round" stroke-linejoin="round" fill="#FFFFFF" fill-opacity="0.95" transform="matrix(1 0 0 1.00106 1010.26 470.983)"/><text fill="#22242A" font-family="Arial,Arial_MSFontService,sans-serif" font-weight="400" font-size="12" transform="matrix(0.884724 0 0 0.885659 1050.06 510)">...</text><path d="M79.6251 0C84.5113-3.14317e-15 88.4724 3.96104 88.4724 8.84724L88.4724 61.9306C88.4724 66.8168 84.5113 70.7779 79.6251 70.7779L8.84724 70.7779C3.96104 70.7779 0 66.8168 0 61.9306L0 8.84724C-1.57158e-15 3.96104 3.96104-1.57158e-15 8.84724-3.14317e-15Z" stroke="#22242A" stroke-width="1.76945" stroke-linecap="round" stroke-linejoin="round" fill="#FFFFFF" fill-opacity="0.95" transform="matrix(1 0 0 1.00106 691.756 568.405)"/><text fill="#22242A" font-family="Arial,Arial_MSFontService,sans-serif" font-weight="400" font-size="12" transform="matrix(0.884724 0 0 0.885659 703.389 601)">Choose fitting </text><text fill="#22242A" font-family="Arial,Arial_MSFontService,sans-serif" font-weight="400" font-size="12" transform="matrix(0.884724 0 0 0.885659 721.83 613)">prices</text><path d="M0 0 24.9804 0 31.2255 7.25183 31.2255 43.511 0 43.511 0 0 24.9804 0 24.9804 7.25183 31.2255 7.25183" stroke="#22242A" stroke-width="1.76945" stroke-linecap="round" stroke-linejoin="round" fill="#FFFFFF" fill-opacity="0.95" transform="matrix(1 0 0 1.00106 560.817 581.69)"/><path d="M8.84724 0 0 0 0 26.5417 8.84724 26.5417" stroke="#22242A" stroke-width="1.76945" stroke-linecap="round" stroke-linejoin="round" fill="none" transform="matrix(1 0 0 1.00106 267.089 311.564)"/><text fill="#22242A" font-family="Arial,Arial_MSFontService,sans-serif" font-weight="400" font-size="12" transform="matrix(0.884724 0 0 0.885659 273.282 327)">2</text><text fill="#22242A" font-family="Arial,Arial_MSFontService,sans-serif" font-weight="400" font-size="12" transform="matrix(0.884724 0 0 0.885659 279.187 327)">-</text><text fill="#22242A" font-family="Arial,Arial_MSFontService,sans-serif" font-weight="400" font-size="12" transform="matrix(0.884724 0 0 0.885659 282.722 327)">6 </text><text fill="#22242A" font-family="Arial,Arial_MSFontService,sans-serif" font-weight="400" font-size="12" transform="matrix(0.884724 0 0 0.885659 291.576 327)">hours</text><path d="M8.84724 0 0 0 0 36.2737 8.84724 36.2737" stroke="#22242A" stroke-width="1.76945" stroke-linecap="round" stroke-linejoin="round" fill="none" transform="matrix(1 0 0 1.00106 497.117 284.994)"/><text fill="#22242A" font-family="Arial,Arial_MSFontService,sans-serif" font-weight="400" font-size="12" transform="matrix(0.884724 0 0 0.885659 503.31 301)">Let it load for </text><text fill="#22242A" font-family="Arial,Arial_MSFontService,sans-serif" font-weight="400" font-size="12" transform="matrix(0.884724 0 0 0.885659 503.31 314)">30</text><text fill="#22242A" font-family="Arial,Arial_MSFontService,sans-serif" font-weight="400" font-size="12" transform="matrix(0.884724 0 0 0.885659 515.119 314)">+ </text><text fill="#22242A" font-family="Arial,Arial_MSFontService,sans-serif" font-weight="400" font-size="12" transform="matrix(0.884724 0 0 0.885659 524.269 314)">minutes</text><path d="M537.912 477.751 637.001 477.751" stroke="#22242A" stroke-width="1.76945" stroke-linecap="round" stroke-linejoin="round" stroke-dasharray="0 4.42362" fill="none" transform="matrix(1 0 0 1.00106 54.7554 125.576)"/><g><path d="M0.884724 4.42362 9.73196 8.84724 0.884724 13.2709" stroke="#22242A" stroke-width="1.32709" stroke-linecap="round" stroke-linejoin="round" stroke-dasharray="8847.24 0.884724" fill="none" transform="matrix(1 0 0 1.00106 682.024 594.975)"/></g><path d="M681.237 442.362 681.237 415.82" stroke="#22242A" stroke-width="1.76945" stroke-linecap="round" stroke-linejoin="round" fill="none" transform="matrix(1 0 0 1.00106 54.7554 125.576)"/><g><path d="M0.884724 4.42362 9.73196 8.84724 0.884724 13.2709Z" stroke="#22242A" stroke-width="0.884724" stroke-linecap="round" stroke-linejoin="round" fill="#22242A" transform="matrix(6.12323e-17 -1.00106 1 6.12971e-17 727.145 551.578)"/></g><path d="M477.751 0C482.637-3.14317e-15 486.598 3.96104 486.598 8.84724L486.598 256.57C486.598 261.456 482.637 265.417 477.751 265.417L8.84724 265.417C3.96104 265.417 0 261.456 0 256.57L0 8.84724C-1.57158e-15 3.96104 3.96104-1.57158e-15 8.84724-3.14317e-15Z" stroke="#22242A" stroke-width="1.32709" stroke-linecap="round" stroke-linejoin="round" stroke-dasharray="8.84723 5.30834 0 5.30834" fill="none" transform="matrix(1 0 0 1.00106 620.978 196.428)"/><text fill="#22242A" font-family="Arial,Arial_MSFontService,sans-serif" font-weight="400" font-size="11" transform="matrix(0.884724 0 0 0.885659 828.888 211)">Make the export </text><text fill="#22242A" font-family="Arial,Arial_MSFontService,sans-serif" font-weight="400" font-size="11" transform="matrix(0.884724 0 0 0.885659 832.451 223)">work</text><text fill="#22242A" font-family="Arial,Arial_MSFontService,sans-serif" font-weight="400" font-size="11" transform="matrix(0.884724 0 0 0.885659 852.998 223)">, </text><text fill="#22242A" font-family="Arial,Arial_MSFontService,sans-serif" font-weight="400" font-size="11" transform="matrix(0.884724 0 0 0.885659 858.406 223)">repeated </text><text fill="#22242A" font-family="Arial,Arial_MSFontService,sans-serif" font-weight="400" font-size="11" transform="matrix(0.884724 0 0 0.885659 839.099 235)">many times</text><path d="M166.328 283.112 212.334 283.112" stroke="#22242A" stroke-width="1.76945" stroke-linecap="round" stroke-linejoin="round" fill="none" transform="matrix(1 0 0 1.00106 54.7554 125.576)"/><g><path d="M0.884724 4.42362 9.73196 8.84724 0.884724 13.2709Z" stroke="#22242A" stroke-width="0.884724" stroke-linecap="round" stroke-linejoin="round" fill="#22242A" transform="matrix(1 0 0 1.00106 257.357 400.13)"/></g><path d="M442.362 283.112 499.869 283.112" stroke="#22242A" stroke-width="1.76945" stroke-linecap="round" stroke-linejoin="round" fill="none" transform="matrix(1 0 0 1.00106 54.7554 125.576)"/><g><path d="M0.884724 4.42362 9.73196 8.84724 0.884724 13.2709Z" stroke="#22242A" stroke-width="0.884724" stroke-linecap="round" stroke-linejoin="round" fill="#22242A" transform="matrix(1 0 0 1.00106 544.892 400.13)"/></g><path d="M544.105 283.112 637.001 283.112" stroke="#22242A" stroke-width="1.76945" stroke-linecap="round" stroke-linejoin="round" fill="none" transform="matrix(1 0 0 1.00106 54.7554 125.576)"/><g><path d="M0.884724 4.42362 9.73196 8.84724 0.884724 13.2709Z" stroke="#22242A" stroke-width="0.884724" stroke-linecap="round" stroke-linejoin="round" fill="#22242A" transform="matrix(1 0 0 1.00106 682.024 400.13)"/></g><text fill="#22242A" font-family="Arial,Arial_MSFontService,sans-serif" font-weight="400" font-size="11" transform="matrix(0.884724 0 0 0.885659 638.673 402)">No</text><path d="M521.987 305.23 521.987 376.008C521.987 378.219 524.199 380.431 526.411 380.431L637.001 380.431" stroke="#22242A" stroke-width="1.76945" stroke-linecap="round" stroke-linejoin="round" fill="none" transform="matrix(1 0 0 1.00106 54.7554 125.576)"/><g><path d="M0.884724 4.42362 9.73196 8.84724 0.884724 13.2709Z" stroke="#22242A" stroke-width="0.884724" stroke-linecap="round" stroke-linejoin="round" fill="#22242A" transform="matrix(1 0 0 1.00106 682.024 497.552)"/></g><path d="M725.473 283.112 818.369 283.112" stroke="#22242A" stroke-width="1.76945" stroke-linecap="round" stroke-linejoin="round" fill="none" transform="matrix(1 0 0 1.00106 54.7554 125.576)"/><g><path d="M0.884724 4.42362 9.73196 8.84724 0.884724 13.2709Z" stroke="#22242A" stroke-width="0.884724" stroke-linecap="round" stroke-linejoin="round" fill="#22242A" transform="matrix(1 0 0 1.00106 863.393 400.13)"/></g><path d="M840.487 260.993 840.487 203.486C840.487 201.275 838.276 199.063 836.064 199.063L725.473 199.063" stroke="#22242A" stroke-width="1.76945" stroke-linecap="round" stroke-linejoin="round" fill="none" transform="matrix(1 0 0 1.00106 54.7554 125.576)"/><g><path d="M0.884724 4.42362 9.73196 8.84724 0.884724 13.2709Z" stroke="#22242A" stroke-width="0.884724" stroke-linecap="round" stroke-linejoin="round" fill="#22242A" transform="matrix(-1 1.22594e-16 -1.22465e-16 -1.00106 789.961 333.705)"/></g><text fill="#22242A" font-family="Arial,Arial_MSFontService,sans-serif" font-weight="400" font-size="11" transform="matrix(0.884724 0 0 0.885659 900.551 362)">Yes</text><path d="M637.001 199.063 526.411 199.063C524.199 199.063 521.987 201.275 521.987 203.486L521.987 260.993" stroke="#22242A" stroke-width="1.76945" stroke-linecap="round" stroke-linejoin="round" fill="none" transform="matrix(1 0 0 1.00106 54.7554 125.576)"/><g><path d="M0.884724 4.42362 9.73196 8.84724 0.884724 13.2709Z" stroke="#22242A" stroke-width="0.884724" stroke-linecap="round" stroke-linejoin="round" fill="#22242A" transform="matrix(6.12323e-17 1.00106 -1 6.12971e-17 585.589 377.103)"/></g><path d="M862.605 283.112 955.501 283.112" stroke="#22242A" stroke-width="1.76945" stroke-linecap="round" stroke-linejoin="round" fill="none" transform="matrix(1 0 0 1.00106 54.7554 125.576)"/><g><path d="M0.884724 4.42362 9.73196 8.84724 0.884724 13.2709Z" stroke="#22242A" stroke-width="0.884724" stroke-linecap="round" stroke-linejoin="round" fill="#22242A" transform="matrix(1 0 0 1.00106 1000.52 400.13)"/></g><text fill="#22242A" font-family="Arial,Arial_MSFontService,sans-serif" font-weight="400" font-size="11" transform="matrix(0.884724 0 0 0.885659 957.173 402)">No</text><path d="M999.738 247.723 999.738 145.979C999.738 143.768 997.526 141.556 995.314 141.556L526.411 141.556C524.199 141.556 521.987 143.768 521.987 145.979L521.987 260.993" stroke="#22242A" stroke-width="1.76945" stroke-linecap="round" stroke-linejoin="round" fill="none" transform="matrix(1 0 0 1.00106 54.7554 125.576)"/><g><path d="M0.884724 4.42362 9.73196 8.84724 0.884724 13.2709Z" stroke="#22242A" stroke-width="0.884724" stroke-linecap="round" stroke-linejoin="round" fill="#22242A" transform="matrix(6.12323e-17 1.00106 -1 6.12971e-17 585.589 377.103)"/></g><path d="M300.806 283.112 353.889 283.112" stroke="#22242A" stroke-width="1.76945" stroke-linecap="round" stroke-linejoin="round" fill="none" transform="matrix(1 0 0 1.00106 54.7554 125.576)"/><g><path d="M0.884724 4.42362 9.73196 8.84724 0.884724 13.2709Z" stroke="#22242A" stroke-width="0.884724" stroke-linecap="round" stroke-linejoin="round" fill="#22242A" transform="matrix(1 0 0 1.00106 398.913 400.13)"/></g><path d="M725.473 380.431 955.501 380.431" stroke="#22242A" stroke-width="1.76945" stroke-linecap="round" stroke-linejoin="round" fill="none" transform="matrix(1 0 0 1.00106 54.7554 125.576)"/><g><path d="M0.884724 4.42362 9.73196 8.84724 0.884724 13.2709Z" stroke="#22242A" stroke-width="0.884724" stroke-linecap="round" stroke-linejoin="round" fill="#22242A" transform="matrix(1 0 0 1.00106 1000.52 497.552)"/></g><path d="M256.57 247.723 256.57 212.334" stroke="#22242A" stroke-width="1.76945" stroke-linecap="round" stroke-linejoin="round" stroke-dasharray="0 4.42362" fill="none" transform="matrix(1 0 0 1.00106 54.7554 125.576)"/><path d="M516.679 266.302 493.676 195.524" stroke="#22242A" stroke-width="1.76945" stroke-linecap="round" stroke-linejoin="round" stroke-dasharray="0 4.42362" fill="none" transform="matrix(1 0 0 1.00106 54.7554 125.576)"/><text fill="#22242A" font-family="Arial,Arial_MSFontService,sans-serif" font-weight="400" font-size="11" transform="matrix(0.884724 0 0 0.885659 582.051 475)">Yes</text><text fill="#22242A" font-family="Arial,Arial_MSFontService,sans-serif" font-weight="400" font-size="11" transform="matrix(0.884724 0 0 0.885659 542.238 641)">Molio price data</text></g></svg>